<svg xmlns="http://www.w3.org/2000/svg" viewBox="0 0 299.5 126"><title>Recurso 3</title><g id="Capa_2" data-name="Capa 2"><g id="Capa_1-2" data-name="Capa 1"><text transform="translate(99.4 46.5)" style="font-size:57.02912139892578px;fill:#fff;font-family:Calibri-Bold, Calibri;font-weight:700">Ban<tspan x="90.7" y="0" style="letter-spacing:-0.004880319136483182em">c</tspan><tspan x="114.3" y="0">o</tspan><tspan x="0" y="68.4">nacional</tspan></text><path d="M10.9,84.3a.9.9,0,0,1-.1.5,6.9,6.9,0,0,0,.2-1.3c0,.2-.1.5-.1.7Z" style="fill:#fff;stroke:#fff;stroke-miterlimit:10;stroke-width:2px"/><path d="M10.9,89.5a2.8,2.8,0,0,1,.1.9c0-.4-.1-.9-.1-1.3v.4Z" style="fill:#fff;stroke:#fff;stroke-miterlimit:10;stroke-width:2px"/><path d="M12.4,79l-.3.6h0l-.2.5A6.1,6.1,0,0,1,12.4,79Z" style="fill:#fff;stroke:#fff;stroke-miterlimit:10;stroke-width:2px"/><path d="M12.6,95.5c0,.1.1.2.1.4l-.5-1.2.3.6C12.5,95.4,12.5,95.4,12.6,95.5Z" style="fill:#fff;stroke:#fff;stroke-miterlimit:10;stroke-width:2px"/><path d="M13.8,76.6a3.9,3.9,0,0,1,.8-1,1,1,0,0,0-.4.5Z" style="fill:#fff;stroke:#fff;stroke-miterlimit:10;stroke-width:2px"/><path d="M15.1,99.9l.5.6a8.6,8.6,0,0,1-.7-1c.1.1.1.3.2.4Z" style="fill:#fff;stroke:#fff;stroke-miterlimit:10;stroke-width:2px"/><path d="M16.7,73.5l1-.8-.3.3h-.1Z" style="fill:#fff;stroke:#fff;stroke-miterlimit:10;stroke-width:2px"/><path d="M20,104.7l.4.3-1-.7Z" style="fill:#fff;stroke:#fff;stroke-miterlimit:10;stroke-width:2px"/><path d="M21,23.5l.8-1-.4.5Z" style="fill:#fff;stroke:#fff;stroke-miterlimit:10;stroke-width:2px"/><path d="M25.1,19.2l1-.8-.5.4Z" style="fill:#fff;stroke:#fff;stroke-miterlimit:10;stroke-width:2px"/><path d="M26.9,108.6l.4.2-1.1-.5Z" style="fill:#fff;stroke:#fff;stroke-miterlimit:10;stroke-width:2px"/><path d="M30.8,15.7l1.2-.5-.6.3Z" style="fill:#fff;stroke:#fff;stroke-miterlimit:10;stroke-width:2px"/><path d="M36.2,111.1h0Z" style="fill:#fff;stroke:#fff;stroke-miterlimit:10;stroke-width:2px"/><path d="M38,13.5h0Z" style="fill:#fff;stroke:#fff;stroke-miterlimit:10;stroke-width:2px"/><path d="M46.5,111.1h0Z" style="fill:#fff;stroke:#fff;stroke-miterlimit:10;stroke-width:2px"/><path d="M46,13.4h0Z" style="fill:#fff;stroke:#fff;stroke-miterlimit:10;stroke-width:2px"/><path d="M52.1,53.1l.5-.2-1.1.5Z" style="fill:#fff;stroke:#fff;stroke-miterlimit:10;stroke-width:2px"/><path d="M52,14.7l1.1.5-.4-.2h0Z" style="fill:#fff;stroke:#fff;stroke-miterlimit:10;stroke-width:2px"/><path d="M55.1,108.7h.5l-1.2.5Z" style="fill:#fff;stroke:#fff;stroke-miterlimit:10;stroke-width:2px"/><path d="M57,17.5l-.3-.2.9.7-.5-.4C57,17.6,57,17.6,57,17.5Z" style="fill:#fff;stroke:#fff;stroke-miterlimit:10;stroke-width:2px"/><path d="M57.2,50.2l.7-.5a3.9,3.9,0,0,0-1,.8Z" style="fill:#fff;stroke:#fff;stroke-miterlimit:10;stroke-width:2px"/><path d="M61.2,46.1l-.8,1,.6-.7h0Z" style="fill:#fff;stroke:#fff;stroke-miterlimit:10;stroke-width:2px"/><path d="M60.9,21.4a.8.8,0,0,1-.2-.4,8.6,8.6,0,0,0,.7,1l-.4-.5Z" style="fill:#fff;stroke:#fff;stroke-miterlimit:10;stroke-width:2px"/><path d="M61.6,104.9l.2-.2-1,.8.6-.5Z" style="fill:#fff;stroke:#fff;stroke-miterlimit:10;stroke-width:2px"/><path d="M63.6,41.9l.3-.6a5.4,5.4,0,0,0-.5,1.1c0-.1.1-.2.1-.4Z" style="fill:#fff;stroke:#fff;stroke-miterlimit:10;stroke-width:2px"/><path d="M63.6,25.7a3.7,3.7,0,0,0,.5,1.1l-.3-.6h-.1C63.7,25.9,63.6,25.8,63.6,25.7Z" style="fill:#fff;stroke:#fff;stroke-miterlimit:10;stroke-width:2px"/><path d="M65.1,36.5c0-.3.1-.6.1-.9a5.9,5.9,0,0,1-.2,1.3c.1-.1.1-.2.1-.4Z" style="fill:#fff;stroke:#fff;stroke-miterlimit:10;stroke-width:2px"/><path d="M65.1,30.5c0,.4.1.8.1,1.3a1.9,1.9,0,0,0-.1-.8h0Z" style="fill:#fff;stroke:#fff;stroke-miterlimit:10;stroke-width:2px"/><path d="M65.7,100.7l.3-.4-.7,1Z" style="fill:#fff;stroke:#fff;stroke-miterlimit:10;stroke-width:2px"/><path d="M69.1,94.9c0-.1.1-.2.1-.3a11.7,11.7,0,0,1-.5,1.1l.3-.6Z" style="fill:#fff;stroke:#fff;stroke-miterlimit:10;stroke-width:2px"/><path d="M70.5,89.4a1.3,1.3,0,0,0,.1-.6c0,.4-.1.8-.1,1.3Z" style="fill:#fff;stroke:#fff;stroke-miterlimit:10;stroke-width:2px"/><path d="M70.6,84.3v-.8c0,.4.1.9.1,1.3v-.5Z" style="fill:#fff;stroke:#fff;stroke-miterlimit:10;stroke-width:2px"/><path d="M79.4,94.8a36.1,36.1,0,0,1-3.9,9,36.7,36.7,0,0,1-14.8,13.1,45.8,45.8,0,0,1-20.3,4.3A48.3,48.3,0,0,1,21,116.7,37.4,37.4,0,0,1,6.2,104.2a30.6,30.6,0,0,1-4-8.6A32.8,32.8,0,0,1,1,86.2a27.3,27.3,0,0,1,7.1-18c3.8-4.1,9-6.7,14.4-8.4a79.8,79.8,0,0,1,12-2.5v-9a5,5,0,0,1,5-5,5,5,0,0,1,5,5v7.1a47.8,47.8,0,0,0,7.6-2.3l-.6.3,1.1-.5-.5.2a32,32,0,0,0,5.1-2.9l-.3.3a3.9,3.9,0,0,1,1-.8l-.7.5A22.8,22.8,0,0,0,61,46.4l-.6.7.8-1-.2.3A23.8,23.8,0,0,0,63.5,42c0,.2-.1.3-.1.4a5.4,5.4,0,0,1,.5-1.1l-.3.6a23.9,23.9,0,0,0,1.5-5.4c0,.2,0,.3-.1.4a5.9,5.9,0,0,0,.2-1.3c0,.3-.1.6-.1.9a25.3,25.3,0,0,0,0-5.5,1.9,1.9,0,0,1,.1.8c0-.5-.1-.9-.1-1.3V31a24.2,24.2,0,0,0-1.3-4.8l.3.6a3.7,3.7,0,0,1-.5-1.1c0,.1.1.2.1.4A21.3,21.3,0,0,0,61,21.5l.4.5a8.6,8.6,0,0,1-.7-1,.8.8,0,0,0,.2.4,22.8,22.8,0,0,0-3.8-3.8l.5.4-.9-.7.3.2A37,37,0,0,0,52.7,15l.4.2L52,14.7l.7.3a29.1,29.1,0,0,0-5.8-1.5h-.1a36.6,36.6,0,0,0-8.1,0h0a30.4,30.4,0,0,0-7.3,2l.6-.3-1.2.5.6-.2a30,30,0,0,0-5.8,3.3l.5-.4-1,.8.5-.4A27.8,27.8,0,0,0,21.4,23l.4-.5-.8,1,.4-.5a34.4,34.4,0,0,0-4,7A46.9,46.9,0,0,0,15,39.1v.3c-.6,4.9-.3,5-.1,10.7a5.3,5.3,0,0,1-1.5,3.5A4.8,4.8,0,0,1,10,55a5.2,5.2,0,0,1-3.5-1.4,5,5,0,0,1-1.4-3.5c-.1-1.6,0-3.3-.2-5A33.5,33.5,0,0,1,6.3,32.8a48.4,48.4,0,0,1,3.6-9.6,36.6,36.6,0,0,1,5.7-8.4A35.3,35.3,0,0,1,31.7,5,40.7,40.7,0,0,1,51,4.3a30.3,30.3,0,0,1,16.6,9.9,48,48,0,0,1,3.2,4.3,27.5,27.5,0,0,1,2.3,4.9A24.7,24.7,0,0,1,75,33.1,30.4,30.4,0,0,1,73.6,43,31.4,31.4,0,0,1,69,51.9,34.1,34.1,0,0,1,65.4,56a27.3,27.3,0,0,1-4.3,3.3A35.6,35.6,0,0,1,53,63.2a62.4,62.4,0,0,1-8.5,2.2V82.3a5.1,5.1,0,0,1-5,5,5,5,0,0,1-5-5V67.1a64.5,64.5,0,0,0-12.4,3.2A22,22,0,0,0,17.4,73l.3-.3-1,.8.6-.5a22.7,22.7,0,0,0-3.1,3.1,1,1,0,0,1,.4-.5,3.9,3.9,0,0,0-.8,1l.4-.5a25,25,0,0,0-2.1,3.5l.3-.6a6.1,6.1,0,0,0-.5,1.2l.2-.5a37.4,37.4,0,0,0-1.2,4.5c0-.2.1-.5.1-.7a6.9,6.9,0,0,1-.2,1.3.9.9,0,0,0,.1-.5,22.6,22.6,0,0,0,0,5.2v-.4c0,.4.1.9.1,1.3a2.8,2.8,0,0,0-.1-.9,22.6,22.6,0,0,0,1.6,5.8l-.3-.6.5,1.2c0-.2-.1-.3-.1-.4a27.6,27.6,0,0,0,2.5,4.4c-.1-.1-.1-.3-.2-.4a8.6,8.6,0,0,0,.7,1l-.5-.6a44.5,44.5,0,0,0,4.9,4.8l-.6-.4,1,.7-.4-.3a33.2,33.2,0,0,0,6.9,3.9l-.7-.3,1.1.5-.4-.2a37.6,37.6,0,0,0,9.3,2.5h0a44.4,44.4,0,0,0,10.3,0h0a35.3,35.3,0,0,0,8.6-2.4l-.7.4,1.2-.5h-.5a28.2,28.2,0,0,0,6.3-3.7l-.6.5,1-.8-.2.2a27.1,27.1,0,0,0,4.1-4.2l-.4.6.7-1-.3.4A31.6,31.6,0,0,0,69,95.1l-.3.6a11.7,11.7,0,0,0,.5-1.1c0,.1-.1.2-.1.3a34.1,34.1,0,0,0,1.4-5.5v.7c0-.5.1-.9.1-1.3a1.3,1.3,0,0,1-.1.6,29,29,0,0,0,.1-5.1v.5c0-.4-.1-.9-.1-1.3v.8c-.1-.6-.3-1.3-.4-1.9a5,5,0,0,1,3.4-6,5.1,5.1,0,0,1,3.8.5,4.6,4.6,0,0,1,2.2,2.9,30.8,30.8,0,0,1,.8,5.3A31.7,31.7,0,0,1,79.4,94.8Z" style="fill:#fff;stroke:#fff;stroke-miterlimit:10;stroke-width:2px"/></g></g></svg>