<svg xmlns="http://www.w3.org/2000/svg" viewBox="0 0 53.7 79.5"><title>Recurso 2</title><g id="Capa_2" data-name="Capa 2"><g id="Capa_1-2" data-name="Capa 1"><path d="M6.7,54.6a.4.4,0,0,1-.1.3c.1-.3.1-.6.2-.9v.5Z" style="fill:#13ace2"/><path d="M6.7,58.1a1.3,1.3,0,0,0,.1.6,2.5,2.5,0,0,1-.1-.8v.2Z" style="fill:#13ace2"/><path d="M7.7,51l-.2.5h0a.4.4,0,0,0-.1.3Z" style="fill:#13ace2"/><path d="M7.8,62.1c0,.1.1.2.1.3l-.3-.8a.5.5,0,0,0,.2.4Z" style="fill:#13ace2"/><path d="M8.6,49.4l.6-.7-.3.4Z" style="fill:#13ace2"/><path d="M9.6,65.1l.3.5-.5-.7v.2Z" style="fill:#13ace2"/><path d="M10.6,47.3l.7-.5H11Z" style="fill:#13ace2"/><path d="M12.8,68.3l.3.3a1.8,1.8,0,0,0-.7-.5Z" style="fill:#13ace2"/><path d="M13.5,13.5l.6-.7-.3.4Z" style="fill:#13ace2"/><path d="M16.3,10.6l.7-.5a.5.5,0,0,1-.4.2Z" style="fill:#13ace2"/><path d="M17.5,71l.3.2-.8-.4Z" style="fill:#13ace2"/><path d="M20.1,8.3l.8-.4-.4.2Z" style="fill:#13ace2"/><path d="M23.8,72.7h0Z" style="fill:#13ace2"/><path d="M25,6.8h0Z" style="fill:#13ace2"/><path d="M30.7,72.7h0Z" style="fill:#13ace2"/><path d="M30.4,6.7h0Z" style="fill:#13ace2"/><path d="M34.5,33.5h.4l-.8.3Z" style="fill:#13ace2"/><path d="M34.4,7.6l.8.3h-.3Z" style="fill:#13ace2"/><path d="M36.6,71.1h.3l-.8.3Z" style="fill:#13ace2"/><path d="M37.8,9.5l-.2-.2a1.8,1.8,0,0,0,.7.5l-.4-.3Z" style="fill:#13ace2"/><path d="M38,31.5l.4-.3a1.8,1.8,0,0,1-.7.5Z" style="fill:#13ace2"/><path d="M40.7,28.8l-.5.7.3-.5h0Z" style="fill:#13ace2"/><path d="M40.5,12.1l-.2-.2.5.6-.3-.3Z" style="fill:#13ace2"/><path d="M40.9,68.5h.2l-.7.5.4-.3Z" style="fill:#13ace2"/><path d="M42.3,26c0-.2.1-.3.2-.5a5.9,5.9,0,0,0-.4.8v-.2A.1.1,0,0,1,42.3,26Z" style="fill:#13ace2"/><path d="M42.3,15l.3.8c-.1-.1-.1-.3-.2-.4h0A.4.4,0,0,1,42.3,15Z" style="fill:#13ace2"/><path d="M43.3,22.3c0-.2.1-.4.1-.6a2.8,2.8,0,0,0-.1.9v-.3Z" style="fill:#13ace2"/><path d="M43.3,18.2a2.8,2.8,0,0,0,.1.9v-.5h0Z" style="fill:#13ace2"/><path d="M43.7,65.7l.2-.3-.5.7Z" style="fill:#13ace2"/><path d="M46,61.8a.4.4,0,0,1,.1-.3l-.4.8a.8.8,0,0,0,.2-.4A.1.1,0,0,1,46,61.8Z" style="fill:#13ace2"/><path d="M47,58.1v-.5a2.8,2.8,0,0,1-.1.9A.6.6,0,0,1,47,58.1Z" style="fill:#13ace2"/><path d="M47,54.6v-.5a2.2,2.2,0,0,1,.1.8v-.3Z" style="fill:#13ace2"/><path d="M52.9,61.7a18.9,18.9,0,0,1-2.6,6,23.3,23.3,0,0,1-10,8.9,30.7,30.7,0,0,1-13.7,2.9,33.4,33.4,0,0,1-13.1-3A24.9,24.9,0,0,1,3.5,68,19.3,19.3,0,0,1,.8,62.2,22.2,22.2,0,0,1,0,55.9,18.3,18.3,0,0,1,4.8,43.7a21.6,21.6,0,0,1,9.7-5.6,78.4,78.4,0,0,1,8.1-1.8v-6a3.4,3.4,0,1,1,6.8,0v4.8a30.2,30.2,0,0,0,5.1-1.6l-.4.2.8-.3h-.4a15.1,15.1,0,0,0,3.5-2l-.3.2a1.8,1.8,0,0,0,.7-.5l-.4.3A14.8,14.8,0,0,0,40.5,29l-.3.5.5-.7-.2.2a16.9,16.9,0,0,0,1.7-2.9v.2a5.9,5.9,0,0,1,.4-.8c-.1.2-.2.3-.2.5a22.4,22.4,0,0,0,1-3.7v.3a2.8,2.8,0,0,1,.1-.9c0,.2-.1.4-.1.6a22.9,22.9,0,0,0,0-3.7v.5a2.8,2.8,0,0,1-.1-.9v.4a16.8,16.8,0,0,0-.9-3.2c.1.1.1.3.2.4l-.3-.8a.4.4,0,0,0,.1.3,14.4,14.4,0,0,0-1.9-3.1l.3.3-.5-.6.2.2a31.9,31.9,0,0,0-2.6-2.6l.4.3a1.8,1.8,0,0,1-.7-.5l.2.2a20.1,20.1,0,0,0-2.9-1.7h.3l-.8-.3.5.2a15.9,15.9,0,0,0-3.9-1h-.1a20.3,20.3,0,0,0-5.5,0h0a22.2,22.2,0,0,0-4.9,1.3l.4-.2-.8.4.4-.2a30,30,0,0,0-3.9,2.2.5.5,0,0,0,.4-.2l-.7.5.3-.3a25.7,25.7,0,0,0-2.8,2.9l.3-.4-.6.7.3-.3a22,22,0,0,0-2.7,4.7,26.9,26.9,0,0,0-1.6,6.2.3.3,0,0,0-.1.2c-.4,3.3-.1,3.3,0,7.2a3.3,3.3,0,0,1-1,2.3,3,3,0,0,1-2.3,1,3.1,3.1,0,0,1-2.4-1,3.2,3.2,0,0,1-.9-2.3c-.1-1.1,0-2.2-.1-3.4a20.6,20.6,0,0,1,.9-8.3A35.1,35.1,0,0,1,6,13.4,24.6,24.6,0,0,1,9.8,7.7,23.8,23.8,0,0,1,20.7,1,27.7,27.7,0,0,1,33.8.6,20.8,20.8,0,0,1,45,7.2a16.1,16.1,0,0,1,2.1,3,13.7,13.7,0,0,1,1.6,3.2A16.9,16.9,0,0,1,50,20a19.5,19.5,0,0,1-1,6.7,22.5,22.5,0,0,1-3,6,33.3,33.3,0,0,1-2.5,2.8,20.1,20.1,0,0,1-2.9,2.2,19.8,19.8,0,0,1-5.5,2.6,30,30,0,0,1-5.7,1.5V53.2a3.4,3.4,0,0,1-6.8,0V43a41.6,41.6,0,0,0-8.4,2.2,13.4,13.4,0,0,0-3.1,1.7h.2l-.7.5L11,47a10.4,10.4,0,0,0-2.1,2.1l.3-.4-.6.7.3-.3a13.8,13.8,0,0,0-1.4,2.4l.2-.5-.3.8a.4.4,0,0,1,.1-.3,16.7,16.7,0,0,0-.8,3V54c-.1.3-.1.6-.2.9a.4.4,0,0,0,.1-.3,20.5,20.5,0,0,0,0,3.5v-.2a2.5,2.5,0,0,0,.1.8,1.3,1.3,0,0,1-.1-.6A16,16,0,0,0,7.8,62a.5.5,0,0,1-.2-.4l.3.8c0-.1-.1-.2-.1-.3a21.4,21.4,0,0,0,1.7,3v-.2l.5.7-.3-.5a16.2,16.2,0,0,0,3.2,3.2l-.4-.2a1.8,1.8,0,0,1,.7.5l-.3-.3A22,22,0,0,0,17.5,71l-.5-.2.8.4-.3-.2a26.6,26.6,0,0,0,6.3,1.7h0a26.6,26.6,0,0,0,6.9,0h0a24.6,24.6,0,0,0,5.9-1.6l-.5.2.8-.3h-.3a22.2,22.2,0,0,0,4.2-2.5l-.4.3.7-.5h-.2a18.5,18.5,0,0,0,2.8-2.8l-.3.4.5-.7-.2.3a20.8,20.8,0,0,0,2.2-3.8.8.8,0,0,1-.2.4l.4-.8a.4.4,0,0,0-.1.3,25.4,25.4,0,0,0,1-3.7.6.6,0,0,0-.1.4,2.8,2.8,0,0,0,.1-.9v.5a20.5,20.5,0,0,0,0-3.5v.3a2.2,2.2,0,0,0-.1-.8v.5l-.3-1.3a3.3,3.3,0,0,1,4.9-3.7,3.4,3.4,0,0,1,1.5,2,13.4,13.4,0,0,1,.5,3.5A18.4,18.4,0,0,1,52.9,61.7Z" style="fill:#13ace2"/></g></g></svg>